<svg width="240" height="240" viewBox="0 0 240 240" fill="none" xmlns="http://www.w3.org/2000/svg">
<path d="M190.481 60H188.661V66.75H190.481V60Z" fill="#4E8465" fill-opacity="0.3"/>
<path d="M198.331 67.5701C197.851 66.4201 197.171 65.3901 196.291 64.5001C195.421 63.6101 194.401 62.9201 193.271 62.4301C192.761 62.2101 192.241 62.0401 191.701 61.9101L191.361 61.8301V64.4001L191.561 64.4601C192.681 64.7901 193.711 65.4201 194.551 66.2701C195.881 67.6201 196.611 69.4201 196.611 71.3301C196.611 73.2401 195.881 75.0401 194.551 76.3901C193.221 77.7401 191.451 78.4901 189.581 78.4901C187.711 78.4901 185.931 77.7501 184.611 76.3901C183.281 75.0401 182.551 73.2401 182.551 71.3301C182.551 69.4201 183.281 67.6201 184.611 66.2701C185.441 65.4201 186.481 64.8001 187.591 64.4601L187.791 64.4001V61.8301L187.451 61.9101C186.921 62.0301 186.391 62.2101 185.881 62.4301C184.751 62.9201 183.731 63.6101 182.861 64.5001C181.991 65.3901 181.301 66.4201 180.821 67.5701C180.321 68.7601 180.071 70.0301 180.071 71.3301C180.071 72.6301 180.321 73.9001 180.821 75.0901C181.301 76.2401 181.981 77.2701 182.861 78.1601C183.731 79.0501 184.751 79.7401 185.881 80.2301C187.051 80.7301 188.301 80.9901 189.581 80.9901C190.861 80.9901 192.111 80.7301 193.281 80.2301C194.411 79.7401 195.431 79.0501 196.301 78.1601C197.171 77.2701 197.861 76.2401 198.341 75.0901C198.841 73.9001 199.091 72.6301 199.091 71.3301C199.091 70.0301 198.841 68.7601 198.341 67.5701H198.331Z" fill="#4E8465" fill-opacity="0.3"/>
<path d="M186.571 185.15L186.791 185.05L186.561 184.96C184.861 184.33 183.171 184.52 181.941 185.48C180.721 186.44 180.031 188.06 180.001 190.05C179.971 192.31 180.781 194.96 182.341 197.72L182.381 197.79L182.871 197.73C182.761 197.76 182.651 197.77 182.531 197.8L182.461 197.82V200.99L182.571 200.97C187.251 199.95 191.991 199.95 196.671 200.97L196.781 200.99V197.82L196.711 197.8C196.711 197.8 196.651 197.79 196.621 197.78L196.661 197.71C198.221 194.95 199.031 192.3 199.001 190.04C198.971 188.05 198.281 186.42 197.061 185.47C195.831 184.51 194.141 184.32 192.441 184.95L192.211 185.04L192.431 185.14C197.511 187.47 195.731 192.37 193.441 197.2C192.721 197.11 192.011 197.04 191.291 197L191.311 185.04V185.01L191.291 184.99C191.031 184.61 190.361 184.35 189.581 184.33C188.761 184.31 188.051 184.56 187.731 184.98L187.711 185.01V197.02C186.991 197.07 186.281 197.15 185.571 197.24C183.281 192.4 181.481 187.48 186.571 185.15V185.15Z" fill="#4E8465" fill-opacity="0.3"/>
<path d="M187.981 183.04C188.301 182.78 188.781 182.66 189.311 182.57C189.261 183.16 189.121 183.74 188.911 184.34H190.311C190.111 183.75 189.961 183.17 189.921 182.63C190.411 182.68 190.871 182.81 191.261 183.08V181.42C190.851 181.62 190.411 181.74 189.951 181.78C190.041 181.09 190.201 180.48 190.471 180H188.741C189.061 180.48 189.231 181.1 189.321 181.8C188.871 181.79 188.431 181.64 187.971 181.42V183.04H187.981Z" fill="#4E8465" fill-opacity="0.3"/>
<path d="M67.9807 63.04C68.3007 62.78 68.7807 62.66 69.3107 62.57C69.2607 63.16 69.1207 63.74 68.9107 64.34H70.3107C70.1107 63.75 69.9607 63.17 69.9207 62.63C70.4107 62.68 70.8707 62.81 71.2607 63.08V61.42C70.8507 61.62 70.4107 61.74 69.9507 61.78C70.0407 61.09 70.2007 60.48 70.4707 60H68.7407C69.0607 60.48 69.2307 61.1 69.3207 61.8C68.8707 61.79 68.4307 61.64 67.9707 61.42V63.04H67.9807Z" fill="#4E8465" fill-opacity="0.3"/>
<path d="M66.5708 65.1502L66.7908 65.0502L66.5608 64.9602C64.8608 64.3302 63.1708 64.5202 61.9408 65.4802C60.7208 66.4402 60.0308 68.0602 60.0008 70.0502C59.9708 72.3102 60.7808 74.9602 62.3408 77.7202L62.3808 77.7902L62.8708 77.7302C62.7608 77.7602 62.6508 77.7702 62.5308 77.8002L62.4608 77.8202V80.9902L62.5708 80.9702C67.2508 79.9502 71.9908 79.9502 76.6708 80.9702L76.7808 80.9902V77.8202L76.7108 77.8002C76.7108 77.8002 76.6508 77.7902 76.6208 77.7802L76.6608 77.7102C78.2208 74.9502 79.0308 72.3002 79.0008 70.0402C78.9708 68.0502 78.2808 66.4202 77.0608 65.4702C75.8308 64.5102 74.1408 64.3202 72.4408 64.9502L72.2108 65.0402L72.4308 65.1402C77.5108 67.4702 75.7308 72.3702 73.4408 77.2002C72.7208 77.1102 72.0108 77.0402 71.2908 77.0002L71.3108 65.0402V65.0102L71.2908 64.9902C71.0308 64.6102 70.3608 64.3502 69.5808 64.3302C68.7608 64.3102 68.0508 64.5602 67.7308 64.9802L67.7108 65.0102V77.0202C66.9908 77.0702 66.2808 77.1502 65.5708 77.2402C63.2808 72.4002 61.4808 67.4802 66.5708 65.1502V65.1502Z" fill="#4E8465" fill-opacity="0.3"/>
<path d="M78.3313 187.57C77.8513 186.42 77.1713 185.39 76.2913 184.5C75.4213 183.61 74.4013 182.92 73.2713 182.43C72.7613 182.21 72.2413 182.04 71.7013 181.91L71.3613 181.83V184.4L71.5613 184.46C72.6813 184.79 73.7113 185.42 74.5513 186.27C75.8813 187.62 76.6113 189.42 76.6113 191.33C76.6113 193.24 75.8813 195.04 74.5513 196.39C73.2213 197.74 71.4513 198.49 69.5813 198.49C67.7113 198.49 65.9313 197.75 64.6113 196.39C63.2813 195.04 62.5513 193.24 62.5513 191.33C62.5513 189.42 63.2813 187.62 64.6113 186.27C65.4413 185.42 66.4813 184.8 67.5913 184.46L67.7913 184.4V181.83L67.4513 181.91C66.9213 182.03 66.3913 182.21 65.8813 182.43C64.7513 182.92 63.7313 183.61 62.8613 184.5C61.9913 185.39 61.3013 186.42 60.8213 187.57C60.3213 188.76 60.0713 190.03 60.0713 191.33C60.0713 192.63 60.3213 193.9 60.8213 195.09C61.3013 196.24 61.9813 197.27 62.8613 198.16C63.7313 199.05 64.7513 199.74 65.8813 200.23C67.0513 200.73 68.3013 200.99 69.5813 200.99C70.8613 200.99 72.1113 200.73 73.2813 200.23C74.4113 199.74 75.4313 199.05 76.3013 198.16C77.1713 197.27 77.8613 196.24 78.3413 195.09C78.8413 193.9 79.0913 192.63 79.0913 191.33C79.0913 190.03 78.8413 188.76 78.3413 187.57H78.3313Z" fill="#4E8465" fill-opacity="0.3"/>
<path d="M70.4811 180H68.6611V186.75H70.4811V180Z" fill="#4E8465" fill-opacity="0.3"/>
<path d="M10.4811 0H8.66113V6.75H10.4811V0Z" fill="#4E8465" fill-opacity="0.3"/>
<path d="M6.5708 125.15L6.7908 125.05L6.5608 124.96C4.8608 124.33 3.1708 124.52 1.9408 125.48C0.720803 126.44 0.0308041 128.06 0.000804084 130.05C-0.0291959 132.31 0.780804 134.96 2.3408 137.72L2.38081 137.79L2.8708 137.73C2.7608 137.76 2.6508 137.77 2.5308 137.8L2.4608 137.82V140.99L2.5708 140.97C7.2508 139.95 11.9908 139.95 16.6708 140.97L16.7808 140.99V137.82L16.7108 137.8C16.7108 137.8 16.6508 137.79 16.6208 137.78L16.6608 137.71C18.2208 134.95 19.0308 132.3 19.0008 130.04C18.9708 128.05 18.2808 126.42 17.0608 125.47C15.8308 124.51 14.1408 124.32 12.4408 124.95L12.2108 125.04L12.4308 125.14C17.5108 127.47 15.7308 132.37 13.4408 137.2C12.7208 137.11 12.0108 137.04 11.2908 137L11.3108 125.04V125.01L11.2908 124.99C11.0308 124.61 10.3608 124.35 9.58081 124.33C8.76081 124.31 8.0508 124.56 7.7308 124.98L7.7108 125.01V137.02C6.9908 137.07 6.2808 137.15 5.5708 137.24C3.2808 132.4 1.4808 127.48 6.5708 125.15V125.15Z" fill="#4E8465" fill-opacity="0.3"/>
<path d="M7.9807 123.04C8.3007 122.78 8.7807 122.66 9.3107 122.57C9.2607 123.16 9.1207 123.74 8.9107 124.34H10.3107C10.1107 123.75 9.9607 123.17 9.9207 122.63C10.4107 122.68 10.8707 122.81 11.2607 123.08V121.42C10.8507 121.62 10.4107 121.74 9.9507 121.78C10.0407 121.09 10.2007 120.48 10.4707 120H8.7407C9.0607 120.48 9.2307 121.1 9.3207 121.8C8.8707 121.79 8.4307 121.64 7.9707 121.42V123.04H7.9807Z" fill="#4E8465" fill-opacity="0.3"/>
<path d="M18.3313 7.57008C17.8513 6.42008 17.1713 5.39008 16.2913 4.50008C15.4213 3.61008 14.4013 2.92008 13.2713 2.43008C12.7613 2.21008 12.2413 2.04008 11.7013 1.91008L11.3613 1.83008V4.40008L11.5613 4.46008C12.6813 4.79008 13.7113 5.42008 14.5513 6.27008C15.8813 7.62008 16.6113 9.42008 16.6113 11.3301C16.6113 13.2401 15.8813 15.0401 14.5513 16.3901C13.2213 17.7401 11.4513 18.4901 9.58129 18.4901C7.71129 18.4901 5.93129 17.7501 4.61129 16.3901C3.28129 15.0401 2.55129 13.2401 2.55129 11.3301C2.55129 9.42008 3.28129 7.62008 4.61129 6.27008C5.44129 5.42008 6.48129 4.80008 7.59129 4.46008L7.79129 4.40008V1.83008L7.45129 1.91008C6.92129 2.03008 6.39129 2.21008 5.88129 2.43008C4.75129 2.92008 3.73129 3.61008 2.86129 4.50008C1.99129 5.39008 1.30129 6.42008 0.821289 7.57008C0.321289 8.76008 0.0712891 10.0301 0.0712891 11.3301C0.0712891 12.6301 0.321289 13.9001 0.821289 15.0901C1.30129 16.2401 1.98129 17.2701 2.86129 18.1601C3.73129 19.0501 4.75129 19.7401 5.88129 20.2301C7.05129 20.7301 8.30129 20.9901 9.58129 20.9901C10.8613 20.9901 12.1113 20.7301 13.2813 20.2301C14.4113 19.7401 15.4313 19.0501 16.3013 18.1601C17.1713 17.2701 17.8613 16.2401 18.3413 15.0901C18.8413 13.9001 19.0913 12.6301 19.0913 11.3301C19.0913 10.0301 18.8413 8.76008 18.3413 7.57008H18.3313Z" fill="#4E8465" fill-opacity="0.3"/>
<path d="M126.571 5.15022L126.791 5.05022L126.561 4.96022C124.861 4.33022 123.171 4.52022 121.941 5.48022C120.721 6.44022 120.031 8.06022 120.001 10.0502C119.971 12.3102 120.781 14.9602 122.341 17.7202L122.381 17.7902L122.871 17.7302C122.761 17.7602 122.651 17.7702 122.531 17.8002L122.461 17.8202V20.9902L122.571 20.9702C127.251 19.9502 131.991 19.9502 136.671 20.9702L136.781 20.9902V17.8202L136.711 17.8002C136.711 17.8002 136.651 17.7902 136.621 17.7802L136.661 17.7102C138.221 14.9502 139.031 12.3002 139.001 10.0402C138.971 8.05022 138.281 6.42022 137.061 5.47022C135.831 4.51022 134.141 4.32022 132.441 4.95022L132.211 5.04022L132.431 5.14022C137.511 7.47022 135.731 12.3702 133.441 17.2002C132.721 17.1102 132.011 17.0402 131.291 17.0002L131.311 5.04022V5.01022L131.291 4.99022C131.031 4.61022 130.361 4.35022 129.581 4.33022C128.761 4.31022 128.051 4.56022 127.731 4.98022L127.711 5.01022V17.0202C126.991 17.0702 126.281 17.1502 125.571 17.2402C123.281 12.4002 121.481 7.48022 126.571 5.15022V5.15022Z" fill="#4E8465" fill-opacity="0.3"/>
<path d="M127.981 3.04C128.301 2.78 128.781 2.66 129.311 2.57C129.261 3.16 129.121 3.74 128.911 4.34H130.311C130.111 3.75 129.961 3.17 129.921 2.63C130.411 2.68 130.871 2.81 131.261 3.08V1.42C130.851 1.62 130.411 1.74 129.951 1.78C130.041 1.09 130.201 0.48 130.471 0H128.741C129.061 0.48 129.231 1.1 129.321 1.8C128.871 1.79 128.431 1.64 127.971 1.42V3.04H127.981Z" fill="#4E8465" fill-opacity="0.3"/>
<path d="M136.291 138.16C137.161 137.27 137.851 136.24 138.331 135.09C138.831 133.9 139.081 132.63 139.081 131.33C139.081 130.03 138.831 128.76 138.331 127.57C137.851 126.42 137.171 125.39 136.291 124.5C135.421 123.61 134.401 122.92 133.271 122.43C132.761 122.21 132.241 122.04 131.701 121.91L131.361 121.83V124.4L131.561 124.46C132.681 124.79 133.711 125.42 134.551 126.27C135.881 127.62 136.611 129.42 136.611 131.33C136.611 133.24 135.881 135.04 134.551 136.39C133.221 137.74 131.451 138.49 129.581 138.49C127.711 138.49 125.931 137.75 124.611 136.39C123.281 135.04 122.551 133.24 122.551 131.33C122.551 129.42 123.281 127.62 124.611 126.27C125.441 125.42 126.481 124.8 127.591 124.46L127.791 124.4V121.83L127.451 121.91C126.921 122.03 126.391 122.21 125.881 122.43C124.751 122.92 123.731 123.61 122.861 124.5C121.991 125.39 121.301 126.42 120.821 127.57C120.321 128.76 120.071 130.03 120.071 131.33C120.071 132.63 120.321 133.9 120.821 135.09C121.301 136.24 121.981 137.27 122.861 138.16C123.731 139.05 124.751 139.74 125.881 140.23C127.051 140.73 128.301 140.99 129.581 140.99C130.861 140.99 132.111 140.73 133.281 140.23C134.411 139.74 135.431 139.05 136.301 138.16H136.291Z" fill="#4E8465" fill-opacity="0.3"/>
<path d="M130.481 120H128.661V126.75H130.481V120Z" fill="#4E8465" fill-opacity="0.3"/>
</svg>
