<svg width="151" height="12" viewBox="0 0 151 12" fill="none" xmlns="http://www.w3.org/2000/svg">
<path d="M8.67736 10.2848H4.70027C4.02939 10.2848 3.42272 10.0385 2.99901 9.58798C2.56888 9.13441 2.37949 8.53666 2.46295 7.90287L2.98617 3.9229C3.15629 2.61626 4.3889 1.59198 5.78522 1.59198H9.81688L9.55687 3.56845H11.2774L11.7107 0.270329H5.21706C3.30395 0.267326 1.55133 1.72715 1.31701 3.5234L0.662187 8.50662C0.55305 9.34467 0.797004 10.1287 1.34911 10.7144C1.8948 11.2911 2.68123 11.6095 3.56716 11.6095H10.2245L10.6579 8.31138H8.93736L8.67736 10.2879V10.2848Z" fill="white"/>
<path d="M8.00635 5.19049L7.81055 6.68636H11.9899L12.1857 5.19049H8.00635Z" fill="white"/>
<path d="M24.1717 1.9134L24.3836 0.294373H15.1198L13.6304 11.6365H22.8974L23.1093 10.0055H15.5242L15.9544 6.72241H21.989L22.2041 5.08836H16.1694L16.5867 1.9134H24.1717Z" fill="white"/>
<path d="M27.59 0.294373L26.1006 11.6366H27.9078L29.394 0.294373H27.59Z" fill="white"/>
<path d="M35.1722 6.05557C35.2107 5.75519 35.4386 5.43379 35.8302 5.13041L40.9051 1.21051L39.833 0L34.7484 4.004C34.3729 4.29837 34.0712 4.61677 33.8529 4.94718L34.4628 0.294368H32.7711L31.2817 11.6395H32.9734L33.5672 7.10989C33.7149 7.46133 33.962 7.78874 34.2991 8.06809L38.9374 12L40.2535 10.7835L35.5894 6.90864C35.2749 6.65332 35.1304 6.35895 35.169 6.05557H35.1722Z" fill="white"/>
<path d="M51.9726 1.16246C51.4334 0.591748 50.6405 0.279358 49.7417 0.279358H46.5671C44.7407 0.279358 43.1967 1.54394 42.9752 3.22304L42.2658 8.61778C42.1599 9.4348 42.391 10.1948 42.9239 10.7595C43.4599 11.3272 44.2528 11.6396 45.1548 11.6396H48.3005C50.1366 11.6396 51.6869 10.369 51.9084 8.68386L52.6178 3.28912C52.7237 2.4751 52.4958 1.72116 51.9726 1.16547V1.16246ZM50.8524 3.30113L50.1622 8.54869C50.0531 9.36872 49.2891 9.98749 48.3807 9.98749H45.3762C44.9397 9.98749 44.5673 9.84632 44.3234 9.58799C44.0859 9.33568 43.9831 8.99025 44.0313 8.61177L44.7214 3.36421C44.8306 2.52917 45.5753 1.92542 46.4901 1.92542H49.5235C49.9632 1.92542 50.3356 2.06659 50.5763 2.32191C50.8106 2.56822 50.9037 2.90764 50.8524 3.30113V3.30113Z" fill="white"/>
<path d="M60.6461 3.37921C60.7584 2.52314 61.5095 1.92539 62.4725 1.92539H68.4654L68.6805 0.291351H62.5624C60.6878 0.291351 59.1053 1.57395 58.8806 3.27408L58.8325 3.64655C58.7201 4.4936 58.9576 5.27158 59.4937 5.83929C60.0362 6.41601 60.8547 6.7314 61.7984 6.7314H65.0436C65.493 6.7314 65.8654 6.87258 66.1158 7.13691C66.3661 7.40424 66.4753 7.78272 66.4207 8.20324L66.379 8.52164C66.2634 9.41075 65.538 9.98747 64.5365 9.98747H58.3157L58.1006 11.6215H64.4338C66.3084 11.6215 67.8908 10.3329 68.1155 8.62377L68.1637 8.26332C68.276 7.40124 68.0321 6.59924 67.4703 6.0075C66.9214 5.42777 66.1222 5.10937 65.2202 5.10937H62.0038C61.5095 5.10937 61.1211 4.9712 60.8772 4.71288C60.6461 4.46657 60.553 4.11813 60.6075 3.70662L60.6525 3.3732L60.6461 3.37921Z" fill="white"/>
<path d="M79.7963 1.1384C79.2731 0.58571 78.5059 0.279327 77.6392 0.279327H74.8049C73.0169 0.279327 71.4376 1.619 71.213 3.32814L70.1216 11.6365H71.871L72.3974 7.62651H78.1624L77.636 11.6365H79.3854L80.4704 3.3792C80.5827 2.51712 80.342 1.72413 79.7899 1.1384H79.7963ZM78.7274 3.38221L78.3807 6.0195H72.6157L72.9527 3.4573C73.0651 2.58921 73.8483 1.91037 74.7342 1.91037H77.4241C77.835 1.91037 78.1785 2.04253 78.416 2.29184C78.6696 2.56218 78.7852 2.95868 78.7306 3.3792L78.7274 3.38221Z" fill="white"/>
<path d="M84.3029 0.294373L82.8135 11.6366H84.6207L86.1068 0.294373H84.3029Z" fill="white"/>
<path d="M102.651 1.2015C102.089 0.606754 101.216 0.282349 100.192 0.282349H94.4399L94.2281 1.88936H99.9481C100.545 1.88936 101.011 2.04856 101.3 2.35194C101.553 2.61927 101.656 3.00075 101.598 3.45131L101.531 3.95894C101.402 4.93817 100.532 5.59899 99.3671 5.59899H96.9629C94.7802 5.59899 93.5315 6.68035 93.2522 8.81001L92.8799 11.6425H102.201L102.413 10.0235H94.8123L94.9535 8.95419C95.0979 7.85181 95.4863 7.16695 96.9661 7.16695H99.3447C101.383 7.16695 102.969 5.91138 103.206 4.11814L103.299 3.41226C103.415 2.53817 103.19 1.77521 102.654 1.20751L102.651 1.2015Z" fill="white"/>
<path d="M114.518 1.15342C113.985 0.588714 113.195 0.279327 112.29 0.279327H109.103C107.276 0.279327 105.732 1.5379 105.514 3.20799L104.802 8.62976C104.696 9.44378 104.927 10.1977 105.453 10.7534C105.989 11.3211 106.792 11.6335 107.706 11.6335H110.852C112.679 11.6335 114.223 10.3689 114.444 8.68984L115.157 3.26806C115.263 2.45104 115.038 1.6971 114.521 1.15042L114.518 1.15342ZM113.401 3.30411L112.714 8.53965C112.605 9.36268 111.809 10.0055 110.9 10.0055H107.954C107.511 10.0055 107.122 9.8553 106.862 9.57895C106.615 9.31762 106.506 8.97219 106.554 8.60273L107.241 3.36719C107.366 2.40599 108.249 1.90135 109.055 1.90135H112.043C112.486 1.90135 112.865 2.04554 113.115 2.30987C113.353 2.56218 113.452 2.90761 113.401 3.30411V3.30411Z" fill="white"/>
<path d="M126.029 1.2015C125.467 0.606754 124.594 0.282349 123.57 0.282349H117.818L117.606 1.88936H123.326C123.923 1.88936 124.389 2.04856 124.677 2.35194C124.931 2.61927 125.034 3.00075 124.976 3.45131L124.909 3.95894C124.78 4.93817 123.91 5.59899 122.745 5.59899H120.341C118.158 5.59899 116.909 6.68035 116.63 8.81001L116.258 11.6425H125.579L125.791 10.0235H118.19L118.331 8.95419C118.476 7.85181 118.864 7.16695 120.344 7.16695H122.723C124.761 7.16695 126.347 5.91138 126.584 4.11814L126.677 3.41226C126.793 2.53817 126.568 1.77521 126.032 1.20751L126.029 1.2015Z" fill="white"/>
<path d="M137.549 1.2015C136.988 0.606754 136.114 0.282349 135.091 0.282349H129.338L129.126 1.88936H134.847C135.444 1.88936 135.909 2.04856 136.198 2.35194C136.452 2.61927 136.554 3.00075 136.496 3.45131L136.429 3.95894C136.301 4.93817 135.431 5.59899 134.266 5.59899H131.861C129.679 5.59899 128.43 6.68035 128.151 8.81001L127.778 11.6425H137.1L137.312 10.0235H129.711L129.852 8.95419C129.996 7.85181 130.385 7.16695 131.865 7.16695H134.243C136.281 7.16695 137.867 5.91138 138.105 4.11814L138.198 3.41226C138.313 2.53817 138.089 1.77521 137.553 1.20751L137.549 1.2015Z" fill="white"/>
</svg>
