<svg width="277" height="250" viewBox="0 0 277 250" fill="none" xmlns="http://www.w3.org/2000/svg">
<path d="M132.482 250C116.952 250 101.878 246.953 87.6779 240.947C73.9685 235.146 61.6606 226.848 51.0984 216.28C40.532 205.711 32.2359 193.405 26.4365 179.693C20.4316 165.49 17.385 150.414 17.385 134.88C17.385 119.346 20.4316 104.27 26.4365 90.0668C32.2359 76.3588 40.532 64.0485 51.0984 53.4801C61.6648 42.9158 73.9727 34.6138 87.6779 28.8175C93.813 26.2237 100.2 24.1545 106.666 22.6729L111.551 21.5522V53.3038L108.681 54.1432C95.3069 58.0634 82.9654 65.4084 72.9949 75.3809C57.1034 91.2756 48.354 112.404 48.354 134.88C48.354 157.356 57.1034 178.484 72.9949 194.379C88.8865 210.274 110.011 219.025 132.482 219.025C154.954 219.025 176.078 210.274 191.97 194.379C207.861 178.484 216.611 157.356 216.611 134.88C216.611 112.404 207.861 91.2756 191.97 75.3809C181.991 65.4 169.641 58.055 156.25 54.1348L153.38 53.2954V21.5522L158.26 22.6687C164.752 24.1545 171.152 26.2195 177.287 28.8175C190.996 34.618 203.3 42.9158 213.866 53.4843C224.433 64.0486 232.729 76.3588 238.528 90.071C244.533 104.274 247.58 119.355 247.58 134.884C247.58 150.414 244.533 165.494 238.528 179.697C232.729 193.409 224.433 205.72 213.866 216.284C203.3 226.852 190.996 235.15 177.287 240.947C163.086 246.953 148.013 250 132.482 250ZM110.296 23.1346L106.952 23.9027C100.557 25.3675 94.2368 27.4115 88.1689 29.9802C74.6105 35.7177 62.4369 43.9231 51.988 54.3741C41.5392 64.825 33.3311 77.001 27.5947 90.5621C21.6569 104.61 18.6439 119.522 18.6439 134.888C18.6439 150.254 21.6569 165.162 27.5947 179.21C33.3311 192.771 41.535 204.947 51.988 215.398C62.4369 225.849 74.6105 234.059 88.1689 239.792C102.214 245.731 117.124 248.745 132.486 248.745C147.849 248.745 162.759 245.731 176.8 239.792C190.358 234.055 202.532 225.849 212.981 215.398C223.43 204.947 231.638 192.771 237.374 179.21C243.312 165.162 246.325 150.25 246.325 134.888C246.325 119.527 243.312 104.61 237.374 90.5621C231.638 77.001 223.434 64.825 212.985 54.3741C202.536 43.9231 190.362 35.7135 176.804 29.9802C170.736 27.4157 164.404 25.3675 157.988 23.9027L154.643 23.1388V52.3552L156.611 52.9303C170.203 56.9092 182.738 64.3633 192.863 74.4911C208.99 90.6208 217.874 112.068 217.874 134.88C217.874 157.692 208.99 179.135 192.863 195.269C176.737 211.398 155.294 220.284 132.486 220.284C109.679 220.284 88.236 211.403 72.1095 195.269C55.983 179.139 47.1035 157.692 47.1035 134.88C47.1035 112.068 55.9872 90.6208 72.1137 74.4911C82.2353 64.3675 94.7614 56.9134 108.337 52.9345L110.3 52.3594V23.1346H110.296Z" fill="url(#paint0_radial_1902_4258)"/>
<path d="M144.11 81.2613H120.875V0H144.11V81.2613ZM122.134 80.0022H142.856V1.25915H122.134V80.0022Z" fill="url(#paint1_linear_1902_4258)"/>
<path d="M115.512 91.1377H106.708C96.9267 91.1377 95.5965 96.6234 93.5067 113.332L89.1593 147.938C87.7577 157.075 86.0204 170.221 96.8134 170.221H105.538C115.097 170.221 117.417 163.791 118.79 147.938L123.137 113.332C123.951 102.029 127.455 91.1377 115.512 91.1377ZM115.315 113.844L111.085 147.51C110.649 150.993 109.155 153.424 107.451 153.424H99.1214C97.4177 153.424 96.5365 150.989 96.9729 147.51L101.203 113.844C101.79 109.177 103.737 107.931 104.799 107.931H113.209C114.266 107.931 115.903 109.177 115.319 113.844H115.315Z" fill="#E83828"/>
<path d="M148.348 91.1377H139.545C129.763 91.1377 128.433 96.6234 126.343 113.332L121.995 147.938C120.594 157.075 118.857 170.221 129.65 170.221H138.374C147.933 170.221 150.254 163.791 151.626 147.938L155.973 113.332C156.787 102.029 160.291 91.1377 148.348 91.1377ZM148.151 113.844L143.921 147.51C143.485 150.993 141.991 153.424 140.287 153.424H131.958C130.254 153.424 129.373 150.989 129.809 147.51L134.039 113.844C134.626 109.177 136.574 107.931 137.635 107.931H146.045C147.102 107.931 148.739 109.177 148.155 113.844H148.151Z" fill="#E83828"/>
<path d="M181.185 91.1377H172.381C162.599 91.1377 161.269 96.6234 159.179 113.332L154.832 147.938C153.43 157.075 151.693 170.221 162.486 170.221H171.21C180.769 170.221 183.09 163.791 184.462 147.938L188.81 113.332C189.624 102.029 193.128 91.1377 181.185 91.1377ZM180.988 113.844L176.758 147.51C176.321 150.993 174.827 153.424 173.124 153.424H164.794C163.09 153.424 162.209 150.989 162.645 147.51L166.875 113.844C167.463 109.177 169.41 107.931 170.472 107.931H178.881C179.939 107.931 181.575 109.177 180.992 113.844H180.988Z" fill="#E83828"/>
<path d="M214.017 91.1377H205.213C195.432 91.1377 194.101 96.6234 192.012 113.332L187.664 147.938C186.263 157.075 184.525 170.221 195.318 170.221H204.042C213.602 170.221 215.922 163.791 217.295 147.938L221.642 113.332C222.456 102.029 225.96 91.1377 214.017 91.1377ZM213.82 113.844L209.59 147.51C209.154 150.993 207.66 153.424 205.956 153.424H197.626C195.923 153.424 195.041 150.989 195.478 147.51L199.708 113.844C200.295 109.177 202.242 107.931 203.304 107.931H211.713C212.771 107.931 214.407 109.177 213.824 113.844H213.82Z" fill="#E83828"/>
<path d="M249.909 91.4482L247.525 110.033L237.198 91.4482H228.234L218.222 169.532L218.109 170.426H227.513L234.714 114.247L244.734 131.825L239.783 170.426H249.187L259.199 92.3464L259.313 91.4482H249.909Z" fill="#E83828"/>
<path d="M82.9025 147.48H43.3813L45.2991 131.833H84.8244L82.9025 147.48Z" fill="#E83828"/>
<path d="M248.624 174.46L35.6055 174.262C27.1876 174.262 21.1994 167.438 22.2359 159.018L26.2896 125.991C27.3597 117.261 35.3033 110.188 44.0317 110.188H70.5946L68.8489 124.413H85.6552L89.7886 90.7388L39.6256 91.1165C22.7479 91.1165 7.38507 104.799 5.31208 121.68L0.230313 163.056C-1.8217 179.777 10.0665 193.33 26.7848 193.33L277 193.082L248.624 174.455V174.46ZM262.779 188.541L265.179 189.137L262.779 188.541Z" fill="#E83828"/>
<defs>
<radialGradient id="paint0_radial_1902_4258" cx="0" cy="0" r="1" gradientUnits="userSpaceOnUse" gradientTransform="translate(132.482 135.778) scale(114.648 114.671)">
<stop offset="0.71" stop-color="#30895E"/>
<stop offset="0.85" stop-color="#67BB71"/>
<stop offset="1" stop-color="#99C955"/>
</radialGradient>
<linearGradient id="paint1_linear_1902_4258" x1="132.491" y1="81.2613" x2="132.491" y2="0" gradientUnits="userSpaceOnUse">
<stop stop-color="#30895E"/>
<stop offset="0.24" stop-color="#469D65"/>
<stop offset="0.53" stop-color="#67BB71"/>
<stop offset="1" stop-color="#99C955"/>
</linearGradient>
</defs>
</svg>
