<svg width="30" height="30" viewBox="0 0 30 30" fill="none" xmlns="http://www.w3.org/2000/svg">
<path d="M11.7885 22.0364L10.5735 23.2439C10.0645 23.7449 9.37896 24.0257 8.66477 24.0257C7.95057 24.0257 7.26501 23.7449 6.75602 23.2439C6.50785 22.9982 6.31085 22.7057 6.17641 22.3833C6.04196 22.061 5.97274 21.7152 5.97274 21.3659C5.97274 21.0167 6.04196 20.6709 6.17641 20.3485C6.31085 20.0262 6.50785 19.7337 6.75602 19.4879L11.226 15.0554C12.1515 14.1359 13.8945 12.7829 15.165 14.0429C15.3017 14.1887 15.4664 14.3055 15.6493 14.3862C15.8321 14.4669 16.0293 14.51 16.2292 14.5129C16.429 14.5157 16.6274 14.4783 16.8125 14.4028C16.9975 14.3273 17.1655 14.2153 17.3063 14.0734C17.4471 13.9316 17.5579 13.7629 17.6321 13.5773C17.7063 13.3917 17.7423 13.193 17.7381 12.9932C17.7338 12.7934 17.6893 12.5965 17.6072 12.4142C17.5252 12.232 17.4073 12.0681 17.2605 11.9324C15.1035 9.79042 11.9115 10.1864 9.13202 12.9449L4.66202 17.3789C4.13386 17.8996 3.71483 18.5204 3.42946 19.205C3.14409 19.8896 2.99809 20.6242 3.00002 21.3659C2.99818 22.1076 3.14421 22.8422 3.42958 23.5268C3.71495 24.2113 4.13392 24.8322 4.66202 25.3529C5.72656 26.4088 7.16611 27 8.66552 26.9969C10.116 26.9969 11.5665 26.4494 12.669 25.3529L13.8855 24.1454C14.0242 24.0082 14.1345 23.845 14.21 23.6651C14.2855 23.4851 14.3247 23.2921 14.3254 23.097C14.3261 22.9019 14.2883 22.7085 14.2141 22.5281C14.1399 22.3476 14.0308 22.1836 13.893 22.0454C13.6146 21.7662 13.2369 21.6086 12.8426 21.6069C12.4483 21.6052 12.0693 21.7596 11.7885 22.0364ZM25.3365 4.81042C23.016 2.50942 19.773 2.38492 17.628 4.51492L16.1145 6.01792C15.8348 6.2956 15.6769 6.67301 15.6755 7.06712C15.6741 7.46122 15.8293 7.83975 16.107 8.11942C16.3847 8.39909 16.7621 8.557 17.1562 8.55841C17.5503 8.55981 17.9288 8.4046 18.2085 8.12692L19.7235 6.62542C20.8335 5.52142 22.29 5.97892 23.2425 6.92092C23.7465 7.42342 24.0255 8.08942 24.0255 8.79892C24.0255 9.50842 23.7465 10.1744 23.2425 10.6754L18.4725 15.4064C16.2915 17.5679 15.2685 16.5554 14.832 16.1219C14.6935 15.9844 14.5293 15.8756 14.3488 15.8015C14.1682 15.7275 13.9749 15.6897 13.7797 15.6904C13.5846 15.6911 13.3915 15.7303 13.2115 15.8056C13.0314 15.8809 12.868 15.9909 12.7305 16.1294C12.593 16.2679 12.4842 16.4321 12.4101 16.6127C12.3361 16.7932 12.2983 16.9866 12.299 17.1817C12.2997 17.3769 12.3389 17.57 12.4142 17.75C12.4895 17.93 12.5995 18.0934 12.738 18.2309C13.74 19.2239 14.883 19.7159 16.08 19.7159C17.5455 19.7159 19.095 18.9779 20.5695 17.5154L25.3395 12.7859C25.8665 12.2644 26.2847 11.6434 26.5698 10.959C26.8548 10.2746 27.0011 9.54034 27 8.79892C27.0014 8.05697 26.855 7.32217 26.5694 6.63739C26.2838 5.9526 25.8647 5.33154 25.3365 4.81042Z" fill="#DC4D40"/>
</svg>
