<svg width="194" height="184" viewBox="0 0 194 184" fill="none" xmlns="http://www.w3.org/2000/svg">
<g clip-path="url(#clip0_1431_2204)">
<path opacity="0.5" d="M42.2637 108.307C18.922 108.307 0 125.155 0 145.944C0 166.733 18.922 183.582 42.2637 183.582" fill="#CB1E20"/>
<path opacity="0.5" d="M73.1147 183.607C85.18 183.607 94.9608 173.826 94.9608 161.761C94.9608 149.696 85.18 139.915 73.1147 139.915C61.0494 139.915 51.2686 149.696 51.2686 161.761C51.2686 173.826 61.0494 183.607 73.1147 183.607Z" fill="#5EB1C2"/>
<path opacity="0.5" d="M73.1148 171.369C78.4211 171.369 82.7228 167.068 82.7228 161.761C82.7228 156.455 78.4211 152.153 73.1148 152.153C67.8085 152.153 63.5068 156.455 63.5068 161.761C63.5068 167.068 67.8085 171.369 73.1148 171.369Z" fill="#31A489"/>
<path opacity="0.5" d="M98.3952 139.915H85.1875V183.607H98.3952V139.915Z" fill="#C62877"/>
<path opacity="0.5" d="M132.505 121.669H119.297V183.608H132.505V121.669Z" fill="#E4A83B"/>
<path opacity="0.5" d="M119.297 121.669C119.297 114.289 125.279 108.307 132.659 108.307C140.039 108.307 146.022 114.289 146.022 121.669" fill="#31A489"/>
<path opacity="0.5" d="M142.391 138.415H109.602V151.623H142.391V138.415Z" fill="#CB1E20"/>
<path opacity="0.5" d="M149.771 161.761C149.771 149.693 159.555 139.915 171.618 139.915C183.68 139.915 193.464 149.698 193.464 161.761" fill="#5EB1C2"/>
<path opacity="0.5" d="M171.618 183.607C159.55 183.607 149.771 173.824 149.771 161.761C149.771 149.698 159.555 139.915 171.618 139.915" fill="#C62877"/>
<path opacity="0.5" d="M86.8066 0.865234C113.671 0.865234 135.45 20.2565 135.45 44.181C135.45 68.1056 113.671 87.4969 86.8066 87.4969" fill="#E4A83B"/>
<path opacity="0.5" d="M168.328 87.4913C182.214 87.4913 193.47 76.235 193.47 62.3496C193.47 48.4643 182.214 37.208 168.328 37.208C154.443 37.208 143.187 48.4643 143.187 62.3496C143.187 76.235 154.443 87.4913 168.328 87.4913Z" fill="#5EB1C2"/>
<path opacity="0.5" d="M168.328 73.4063C174.434 73.4063 179.385 68.4559 179.385 62.3492C179.385 56.2425 174.434 51.292 168.328 51.292C162.221 51.292 157.271 56.2425 157.271 62.3492C157.271 68.4559 162.221 73.4063 168.328 73.4063Z" fill="#31A489"/>
<path opacity="0.5" d="M56.4406 0.865234H41.2422V87.4917H56.4406V0.865234Z" fill="#5EB1C2"/>
<path opacity="0.5" d="M74.5946 50.6641V65.8625H0L9.64407 50.6641H74.5946Z" fill="#E4A83B"/>
<path opacity="0.5" d="M15.1984 65.8622H0L41.2426 0.865234H56.4462L15.1984 65.8622Z" fill="#C62877"/>
</g>
<defs>
<clipPath id="clip0_1431_2204">
<rect width="193.469" height="182.742" fill="white" transform="translate(0 0.865234)"/>
</clipPath>
</defs>
</svg>
