<svg width="75" height="40" viewBox="0 0 75 40" fill="none" xmlns="http://www.w3.org/2000/svg">
<g clip-path="url(#clip0_1842_4270)">
<path d="M56.9187 0H18.0813C8.09651 0 0 7.80842 0 17.4456C0 27.0827 8.09651 34.8911 18.0813 34.8911H37.4785C36.1053 37.1698 34.2027 39.6372 32.1858 40C32.1858 40 41.7986 39.1582 46.934 34.8911H56.9187C66.9035 34.8911 75 27.0827 75 17.4456C75 7.80842 66.9035 0 56.9187 0V0Z" fill="#3E3E3E"/>
<path d="M23.0451 16.0522C22.287 16.4586 21.7434 16.6763 21.1569 16.9376L19.9839 14.2525C22.7447 13.3962 25.1622 11.8142 26.9646 9.68066H29.9972C31.3991 11.3352 33.6736 13.3381 36.9064 14.238L35.6905 16.923C35.1756 16.6908 34.6749 16.4876 33.8595 16.0377V17.4455H29.7827V19.0275H34.9324V21.4078H29.7827V23.2946H36.5345V25.849H20.3558V23.2946H27.122V21.4078H21.9723V19.0275H27.122V17.4455H23.0594V16.0522H23.0451ZM32.2002 14.9927C30.126 13.5413 29.1246 12.5254 28.438 11.7852C26.8931 13.5268 25.7773 14.3106 24.8046 14.9927H32.2002V14.9927Z" fill="white"/>
<path d="M37.7788 24.2089C39.8101 24.0347 41.4551 23.5993 42.3993 23.1784H39.2093V15.0362H52.9848V23.1784H49.8664C50.553 23.4397 52.4698 24.0493 54.4153 24.1218L53.3996 26.357C51.5686 26.1828 49.1511 25.3845 47.3916 24.3831L48.7077 23.1784H43.2862L44.5879 24.4556C43.2003 25.2394 41.6125 25.8635 38.8946 26.4005L37.7788 24.2089V24.2089ZM39.7529 10.0435H52.4269V14.4121H39.7529V10.0435ZM41.7269 17.3874H50.4242V16.7053H41.7269V17.3874V17.3874ZM41.7269 19.4629H50.4242V18.7372H41.7269V19.4629V19.4629ZM41.7269 21.5529H50.4242V20.8272H41.7269V21.5529V21.5529ZM42.2705 12.7866H49.895V11.8432H42.2705V12.7866Z" fill="white"/>
</g>
<defs>
<clipPath id="clip0_1842_4270">
<rect width="75" height="40" fill="white"/>
</clipPath>
</defs>
</svg>
