<svg width="30" height="30" viewBox="0 0 30 30" fill="none" xmlns="http://www.w3.org/2000/svg">
<path d="M25.884 18.3795C25.74 17.379 24.9675 16.599 23.973 16.3665C20.1075 15.4605 19.1385 13.2345 18.975 10.7655C18.2895 10.638 17.07 10.5 15 10.5C12.93 10.5 11.7105 10.638 11.025 10.7655C10.8615 13.2345 9.89248 15.4605 6.02698 16.3665C5.03248 16.6005 4.25998 17.379 4.11598 18.3795L3.37048 23.5425C3.10798 25.3605 4.44298 27 6.29998 27H23.7C25.5555 27 26.892 25.3605 26.6295 23.5425L25.884 18.3795ZM15 23.238C12.9075 23.238 11.211 21.558 11.211 19.488C11.211 17.418 12.9075 15.738 15 15.738C17.0925 15.738 18.789 17.418 18.789 19.488C18.789 21.558 17.091 23.238 15 23.238ZM29.925 9C29.889 6.75 24.162 3.0015 15 3C5.83648 3.0015 0.109482 6.75 0.0749819 9C0.0404819 11.25 0.106482 14.178 3.87748 13.6905C8.28898 13.119 8.01748 11.5785 8.01748 9.3765C8.01748 7.8405 11.6055 7.47 15 7.47C18.3945 7.47 21.981 7.8405 21.9825 9.3765C21.9825 11.5785 21.711 13.119 26.1225 13.6905C29.892 14.178 29.9595 11.25 29.925 9Z" fill="#DC4D40"/>
</svg>
