<svg width="254" height="229" viewBox="0 0 254 229" fill="none" xmlns="http://www.w3.org/2000/svg">
<path d="M121.006 228C106.897 228 93.2023 225.222 80.3049 219.748C67.8521 214.462 56.6718 206.895 47.0783 197.261C37.4809 187.628 29.9456 176.406 24.6755 163.907C19.2214 150.957 16.4541 137.215 16.4541 123.054C16.4541 108.893 19.2214 95.151 24.6755 82.2016C29.9418 69.7022 37.4809 58.4802 47.0783 48.847C56.6756 39.2138 67.8559 31.6503 80.3049 26.3644C85.8778 23.9984 91.6807 22.1133 97.5564 20.7629L101.316 19.8973V47.8506L99.1087 48.5007C86.8015 52.1209 75.4449 58.9034 66.2691 68.1134C51.647 82.7902 43.5942 102.303 43.5942 123.058C43.5942 143.813 51.647 163.326 66.2691 178.003C80.8913 192.68 100.331 200.762 121.009 200.762C141.687 200.762 161.127 192.68 175.75 178.003C190.372 163.326 198.424 143.813 198.424 123.058C198.424 102.303 190.372 82.7902 175.75 68.1134C166.57 58.8957 155.202 52.1132 142.879 48.493L140.668 47.8429V19.905L144.424 20.7668C150.319 22.121 156.133 24.0061 161.706 26.3721C174.159 31.658 185.335 39.2253 194.933 48.8547C204.53 58.4879 212.065 69.7099 217.336 82.2093C222.79 95.1548 225.557 108.901 225.557 123.062C225.557 137.223 222.79 150.965 217.336 163.915C212.069 176.414 204.534 187.632 194.933 197.269C185.335 206.902 174.155 214.466 161.706 219.752C148.809 225.226 135.114 228.004 121.006 228.004V228Z" fill="url(#paint0_radial_2022_5713)"/>
<path d="M131.051 0H110.979V73.3301H131.051V0Z" fill="url(#paint1_linear_2022_5713)"/>
<path d="M105.505 82.9633H97.4639C88.5296 82.9633 87.3146 87.9915 85.4058 103.307L81.4351 135.026C80.1549 143.402 78.5681 155.451 88.4261 155.451H96.3945C105.126 155.451 107.245 149.557 108.499 135.026L112.469 103.307C113.213 92.9466 116.413 82.9633 105.505 82.9633V82.9633ZM105.325 103.776L101.461 134.634C101.063 137.827 99.6984 140.055 98.1423 140.055H90.5341C88.978 140.055 88.1731 137.823 88.5717 134.634L92.4352 103.776C92.9718 99.4982 94.7502 98.3556 95.7199 98.3556H103.401C104.367 98.3556 105.862 99.4982 105.329 103.776H105.325Z" fill="#E83828"/>
<path d="M135.497 82.9633H127.456C118.522 82.9633 117.307 87.9915 115.398 103.307L111.427 135.026C110.147 143.402 108.56 155.451 118.418 155.451H126.387C135.118 155.451 137.237 149.557 138.491 135.026L142.462 103.307C143.205 92.9466 146.405 82.9633 135.497 82.9633V82.9633ZM135.317 103.776L131.454 134.634C131.055 137.827 129.691 140.055 128.134 140.055H120.526C118.97 140.055 118.165 137.823 118.564 134.634L122.427 103.776C122.964 99.4982 124.742 98.3556 125.712 98.3556H133.393C134.359 98.3556 135.854 99.4982 135.321 103.776H135.317Z" fill="#E83828"/>
<path d="M165.488 82.9634H157.447C148.513 82.9634 147.298 87.9916 145.389 103.307L141.418 135.027C140.138 143.402 138.552 155.451 148.409 155.451H156.378C165.109 155.451 167.229 149.557 168.482 135.027L172.453 103.307C173.196 92.9467 176.397 82.9634 165.488 82.9634V82.9634ZM165.308 103.776L161.445 134.634C161.046 137.827 159.682 140.055 158.126 140.055H150.518C148.961 140.055 148.157 137.823 148.555 134.634L152.419 103.776C152.955 99.4983 154.734 98.3557 155.703 98.3557H163.384C164.35 98.3557 165.845 99.4983 165.312 103.776H165.308Z" fill="#E83828"/>
<path d="M195.477 82.9633H187.436C178.501 82.9633 177.286 87.9915 175.378 103.307L171.407 135.026C170.127 143.402 168.54 155.451 178.398 155.451H186.366C195.097 155.451 197.217 149.557 198.47 135.026L202.441 103.307C203.185 92.9466 206.385 82.9633 195.477 82.9633V82.9633ZM195.297 103.776L191.433 134.634C191.035 137.827 189.67 140.055 188.114 140.055H180.506C178.95 140.055 178.145 137.823 178.543 134.634L182.407 103.776C182.943 99.4982 184.722 98.3556 185.692 98.3556H193.373C194.338 98.3556 195.833 99.4982 195.3 103.776H195.297Z" fill="#E83828"/>
<path d="M228.259 83.248L226.082 100.279L216.649 83.248H208.462L199.317 154.816L199.214 155.636H207.803L214.38 104.142L223.533 120.257L219.01 155.636H227.6L236.745 84.0675L236.848 83.248H228.259Z" fill="#E83828"/>
<path d="M75.7205 134.603H39.623L41.3746 120.261H77.4759L75.7205 134.603Z" fill="#E83828"/>
<path d="M227.086 159.333L32.521 159.152C24.8323 159.152 19.3629 152.896 20.3096 145.179L24.0121 114.906C24.9895 106.904 32.245 100.422 40.2172 100.422H64.4789L62.8845 113.459H78.2349L82.0102 82.594L36.1928 82.9402C20.7772 82.9402 6.7453 95.4819 4.85189 110.955L0.210361 148.88C-1.66388 164.207 9.19447 176.629 24.4644 176.629L253.003 176.402L227.086 159.329V159.333ZM240.014 172.24L242.206 172.786L240.014 172.24Z" fill="#E83828"/>
<defs>
<radialGradient id="paint0_radial_2022_5713" cx="0" cy="0" r="1" gradientUnits="userSpaceOnUse" gradientTransform="translate(121.006 123.951) scale(104.107 104.496)">
<stop offset="0.66" stop-color="#30895E"/>
<stop offset="0.75" stop-color="#539E5A"/>
<stop offset="0.86" stop-color="#79B557"/>
<stop offset="0.95" stop-color="#90C355"/>
<stop offset="1" stop-color="#99C955"/>
</radialGradient>
<linearGradient id="paint1_linear_2022_5713" x1="121.013" y1="73.3301" x2="121.013" y2="0" gradientUnits="userSpaceOnUse">
<stop stop-color="#30895E"/>
<stop offset="0.19" stop-color="#469D65"/>
<stop offset="0.43" stop-color="#67BB71"/>
<stop offset="1" stop-color="#99C955"/>
</linearGradient>
</defs>
</svg>
