<svg width="79" height="79" viewBox="0 0 79 79" fill="none" xmlns="http://www.w3.org/2000/svg">
<path fill-rule="evenodd" clip-rule="evenodd" d="M39.5 79C61.3152 79 79 61.3152 79 39.5C79 17.6848 61.3152 0 39.5 0C17.6848 0 0 17.6848 0 39.5C0 61.3152 17.6848 79 39.5 79ZM32.2384 35.8557C32.2124 30.9383 31.3017 28.9609 23.3142 28.9609C19.0993 28.9609 14.7543 29.2732 14.7543 35.1792C14.7543 38.2494 15.9772 40.4088 19.2814 40.7471L26.6706 41.4756C28.2576 41.6317 28.4658 42.6724 28.4658 43.4529C28.4658 45.5084 27.1389 45.6645 23.6785 45.6645C19.3139 45.6645 19.3075 45.0419 19.2816 42.5274L19.2814 42.5163H14.6763C14.7023 48.3443 16.1853 49.8794 24.0427 49.8794C29.3764 49.8794 33.0189 49.0468 33.0189 43.3749C33.0189 42.126 33.0189 37.9892 27.5031 37.4948L21.2328 36.9224C19.6717 36.7923 19.1774 36.272 19.1774 35.2313C19.1774 33.0718 20.8685 33.0718 23.6004 33.0718C27.3991 33.0718 27.6592 33.7482 27.6592 35.8557H32.2384ZM50.8784 39.186C50.8784 38.6656 50.7223 36.7923 50.0719 35.9077C48.745 34.1385 46.2472 34.1385 43.047 34.1385C37.8695 34.1385 35.9962 35.1532 35.9701 39.2641H40.133C40.055 37.9371 40.4713 37.755 43.7235 37.755C46.1692 37.755 46.8456 37.781 46.8456 39.0039C46.8456 39.8194 46.2965 39.8611 45.9561 39.8869L45.935 39.8885L39.3785 40.3308C38.9362 40.3568 37.6093 40.617 37.0369 41.0073C35.6579 41.9179 35.4758 43.583 35.4758 45.0661C35.4758 49.6712 38.2597 49.8794 41.6941 49.8794C44.7642 49.8794 46.1171 49.7233 47.0538 48.2402C47.0798 48.7086 47.1319 49.2029 47.1839 49.6712H51.1907C51.0085 48.7086 50.8784 47.876 50.8784 45.9507V39.186ZM46.8977 44.2595C46.8977 45.9507 45.3886 46.2369 42.7868 46.2369C40.133 46.2369 39.5346 46.0027 39.5346 45.014C39.5346 44.4156 39.6127 43.8172 40.9656 43.7131L45.4407 43.4009C46.5334 43.3229 46.7676 43.0106 46.8977 42.7765V44.2595ZM52.7926 34.3467H55.8367V30.6521H60.1557V34.3467H64.7608V38.3274H60.1557V44.2335C60.1557 45.5084 60.1557 46.0287 64.8649 45.7685V49.7493C64.3706 49.8273 63.8502 49.8794 62.8095 49.8794C57.2937 49.8794 55.8367 49.0468 55.8367 45.6385V38.3274H52.7926V34.3467Z" fill="#3E3E3E"/>
</svg>
