<svg width="79" height="79" viewBox="0 0 79 79" fill="none" xmlns="http://www.w3.org/2000/svg">
<path fill-rule="evenodd" clip-rule="evenodd" d="M39.5 79C61.3152 79 79 61.3152 79 39.5C79 17.6848 61.3152 0 39.5 0C17.6848 0 0 17.6848 0 39.5C0 61.3152 17.6848 79 39.5 79ZM29.8614 35.752C29.8354 30.8346 28.9248 28.8572 20.9373 28.8572C16.7224 28.8572 12.3774 29.1694 12.3774 35.0755C12.3774 38.1456 13.6002 40.3051 16.9045 40.6433L24.2936 41.3718C25.8807 41.5279 26.0888 42.5687 26.0888 43.3492C26.0888 45.4046 24.7619 45.5607 21.3015 45.5607C16.9369 45.5607 16.9305 44.9381 16.9046 42.4237L16.9045 42.4126H12.2993C12.3253 48.2406 13.8084 49.7756 21.6658 49.7756C26.9995 49.7756 30.642 48.9431 30.642 43.2711C30.642 42.0223 30.642 37.8854 25.1262 37.3911L18.8558 36.8187C17.2948 36.6886 16.8004 36.1682 16.8004 35.1275C16.8004 32.968 18.4916 32.968 21.2235 32.968C25.0221 32.968 25.2823 33.6445 25.2823 35.752H29.8614ZM48.6056 49.5675V34.2429H44.2866V42.8288C44.2866 44.6501 44.1305 45.8209 40.7481 45.8209C38.3805 45.8209 37.704 45.1705 37.704 43.9476V34.2429H33.385V44.8322C33.385 49.2813 36.4031 49.7756 39.3692 49.7756C42.5434 49.7756 43.6101 49.1252 44.4427 47.9804L44.5207 49.5675H48.6056ZM51.1962 49.5675V34.2429H55.281L55.359 35.83C56.1916 34.6852 57.2844 34.0348 60.4326 34.0348C63.3986 34.0348 66.4167 34.5551 66.4167 38.9782V49.5675H62.0977V39.8628C62.0977 38.6399 61.4212 38.0155 59.0536 38.0155C55.6713 38.0155 55.5152 39.1603 55.5152 40.9816V49.5675H51.1962Z" fill="#3E3E3E"/>
</svg>
