<?xml version="1.0" encoding="UTF-8"?><svg id="Logo" xmlns="http://www.w3.org/2000/svg" width="155" height="125.95" viewBox="0 0 155 125.95"><defs><style>.cls-1{fill:#1d9bf0;}</style></defs><g id="Logo-2"><path id="white_background" class="cls-1" d="M139.13,31.35c.09,1.37,.09,2.73,.09,4.11,0,42.02-31.99,90.48-90.48,90.48v-.03c-17.28,.03-34.2-4.92-48.74-14.26,2.51,.3,5.04,.45,7.57,.46,14.32,.01,28.23-4.79,39.49-13.64-13.61-.26-25.54-9.13-29.71-22.08,4.77,.92,9.68,.73,14.36-.55-14.84-3-25.51-16.03-25.51-31.17v-.4c4.42,2.46,9.37,3.83,14.43,3.98C6.66,38.92,2.36,20.33,10.79,5.8c16.15,19.87,39.97,31.94,65.54,33.22-2.56-11.04,.94-22.62,9.2-30.38,12.81-12.04,32.95-11.42,44.99,1.38,7.12-1.4,13.95-4.02,20.19-7.72-2.37,7.36-7.34,13.61-13.98,17.59,6.3-.74,12.46-2.43,18.26-5.01-4.27,6.4-9.65,11.97-15.87,16.47Z"/></g></svg>