<?xml version="1.0" encoding="UTF-8"?><svg id="_レイヤー_1" xmlns="http://www.w3.org/2000/svg" width="250" height="92.58" viewBox="0 0 250 92.58"><defs><style>.cls-1{fill:#dc4d40;}</style></defs><path class="cls-1" d="M104.26,.36h-7.95c-8.83,0-10.03,4.95-11.91,20.03l-3.92,31.23c-1.26,8.24-2.83,20.11,6.91,20.11h7.87c8.63,0,10.72-5.8,11.96-20.11l3.92-31.23c.73-10.2,3.9-20.03-6.88-20.03Zm-.18,20.49l-3.82,30.38c-.39,3.14-1.74,5.34-3.28,5.34h-7.52c-1.54,0-2.33-2.19-1.94-5.34l3.82-30.38c.53-4.21,2.29-5.34,3.24-5.34h7.59c.96,0,2.43,1.12,1.9,5.34Z"/><path class="cls-1" d="M133.89,.36h-7.95c-8.83,0-10.03,4.95-11.91,20.03l-3.92,31.23c-1.26,8.24-2.83,20.11,6.91,20.11h7.87c8.63,0,10.72-5.8,11.96-20.11l3.92-31.23c.73-10.2,3.9-20.03-6.88-20.03Zm-.18,20.49l-3.82,30.38c-.39,3.14-1.74,5.34-3.28,5.34h-7.52c-1.54,0-2.33-2.19-1.94-5.34l3.82-30.38c.53-4.21,2.29-5.34,3.24-5.34h7.59c.96,0,2.43,1.12,1.9,5.34Z"/><path class="cls-1" d="M163.53,.36h-7.95c-8.83,0-10.03,4.95-11.91,20.03l-3.92,31.23c-1.26,8.24-2.83,20.11,6.91,20.11h7.87c8.63,0,10.72-5.8,11.96-20.11l3.92-31.23c.73-10.2,3.9-20.03-6.88-20.03Zm-.18,20.49l-3.82,30.38c-.39,3.14-1.74,5.34-3.28,5.34h-7.52c-1.54,0-2.33-2.19-1.94-5.34l3.82-30.38c.53-4.21,2.29-5.34,3.24-5.34h7.59c.96,0,2.43,1.12,1.9,5.34Z"/><path class="cls-1" d="M193.16,.36h-7.95c-8.83,0-10.03,4.95-11.91,20.03l-3.92,31.23c-1.26,8.24-2.83,20.11,6.91,20.11h7.87c8.63,0,10.72-5.8,11.96-20.11l3.92-31.23c.73-10.2,3.9-20.03-6.88-20.03Zm-.18,20.49l-3.82,30.38c-.39,3.14-1.74,5.34-3.28,5.34h-7.52c-1.54,0-2.33-2.19-1.94-5.34l3.82-30.38c.53-4.21,2.29-5.34,3.24-5.34h7.59c.96,0,2.43,1.12,1.9,5.34Z"/><polygon class="cls-1" points="225.55 .64 223.4 17.41 214.08 .64 205.99 .64 196.95 71.1 196.85 71.91 205.34 71.91 211.84 21.21 220.88 37.08 216.41 71.91 224.9 71.91 233.94 1.45 234.04 .64 225.55 .64"/><polygon class="cls-1" points="74.82 51.2 39.15 51.2 40.89 37.08 76.56 37.08 74.82 51.2"/><path class="cls-1" d="M224.39,75.55l-192.26-.18c-7.6,0-13-6.16-12.07-13.76l3.66-29.8c.97-7.88,8.14-14.26,16.01-14.26h23.97l-1.58,12.84h15.17L81.03,0,35.76,.34C20.53,.34,6.66,12.69,4.79,27.92L.21,65.26c-1.85,15.09,8.88,27.32,23.97,27.32l225.83-.22-25.61-16.81Zm12.77,12.71h0l2.17,.54-2.17-.54Z"/></svg>